# xmcd
#
# Track frame offsets:
#	150
#	848
#	10261
#	30010
#	45437
#	64151
#	89244
#	110380
#	131096
#	142421
#	174394
#	195251
#	220202
#	233284
#	247111
#	268529
#	288348
#	301075
#
# Disc length: 4434 seconds
#
# Revision: 0
# Processed by: cddbd v1.5.2PL0 Copyright (c) Steve Scherf et al.
# Submitted via: EZCDAudioConverter 2.1.7.1
#
DISCID=ea115012
DTITLE=Los Amigos Invisibles - Superpop Venezuela
DYEAR=2005
DGENRE=
TTITLE0=Intro
TTITLE1=Miss Venezuela
TTITLE2=All Day Today
TTITLE3=Curda Y Pan
TTITLE4=No Es Fácil Amar A Una Mujer
TTITLE5=Yo Soy Así
TTITLE6=Rosario
TTITLE7=Yo No Se
TTITLE8=Caramelo Y Chocolate
TTITLE9=Amar Es Algo Más
TTITLE10=Si Tu Te Vas
TTITLE11=Ganas
TTITLE12=Dun-Dun
TTITLE13=Mao-Mao
TTITLE14=Un Poquito Más
TTITLE15=Media Luna
TTITLE16=Superpop Venezuela
TTITLE17=San Agustin
EXTD=
EXTT0=
EXTT1=
EXTT2=
EXTT3=
EXTT4=
EXTT5=
EXTT6=
EXTT7=
EXTT8=
EXTT9=
EXTT10=
EXTT11=
EXTT12=
EXTT13=
EXTT14=
EXTT15=
EXTT16=
EXTT17=
PLAYORDER=
